STARTFONT 2.1
FONT -sun-helmet-bold-i-normal--10-100-75-75-p-64-adobe-fontspecific
SIZE 10 75 75
FONTBOUNDINGBOX 14 13 -2 -3

STARTPROPERTIES 28
FOUNDRY "sun"
FAMILY_NAME "helmet"
WEIGHT_NAME "bold"
SLANT "i"
SETWIDTH_NAME "normal"
ADD_STYLE_NAME ""
PIXEL_SIZE 10
POINT_SIZE 100
RESOLUTION_X 75
RESOLUTION_Y 75
SPACING "p"
AVERAGE_WIDTH 64
CHARSET_REGISTRY "adobe"
CHARSET_ENCODING "fontspecific"
COPYRIGHT "© 1999 Sun Microsystems, Inc."
RAW_PIXELSIZE 1000
RAW_POINTSIZE 964
RAW_ASCENT 929
RAW_DESCENT 205
RAW_AVERAGE_WIDTH 6124
FACE_NAME "HelmetBoldItalic5"
_XMBDFED_INFO "Edited with xmbdfed 2.4."
WEIGHT 10
X_HEIGHT -1
QUAD_WIDTH 6
DEFAULT_CHAR 4
FONT_DESCENT 3
FONT_ASCENT 10
ENDPROPERTIES

CHARS 202

STARTCHAR char32
ENCODING 32
SWIDTH 25 0
DWIDTH 3 0
BBX 0 0 0 0
BITMAP
ENDCHAR

STARTCHAR char33
ENCODING 33
SWIDTH 25 0
DWIDTH 3 0
BBX 4 8 0 -1
BITMAP
30
30
60
60
00
00
60
C0
ENDCHAR

STARTCHAR char34
ENCODING 34
SWIDTH 43 0
DWIDTH 5 0
BBX 5 5 1 3
BITMAP
48
D8
D0
50
B0
ENDCHAR

STARTCHAR char35
ENCODING 35
SWIDTH 51 0
DWIDTH 6 0
BBX 5 8 0 0
BITMAP
28
28
28
38
50
F8
50
50
ENDCHAR

STARTCHAR char36
ENCODING 36
SWIDTH 68 0
DWIDTH 8 0
BBX 7 10 0 -1
BITMAP
08
08
36
66
78
3E
46
7E
7C
30
ENDCHAR

STARTCHAR char37
ENCODING 37
SWIDTH 7 0
DWIDTH 11 0
BBX 10 7 0 0
BITMAP
7900
DA00
DBC0
F7C0
2BC0
0BC0
1380
ENDCHAR

STARTCHAR char38
ENCODING 38
SWIDTH 68 0
DWIDTH 8 0
BBX 8 7 0 0
BITMAP
1C
36
3C
7A
EE
FE
76
ENDCHAR

STARTCHAR char39
ENCODING 39
SWIDTH 25 0
DWIDTH 3 0
BBX 3 4 1 3
BITMAP
60
A0
C0
80
ENDCHAR

STARTCHAR char40
ENCODING 40
SWIDTH 34 0
DWIDTH 4 0
BBX 4 9 1 -2
BITMAP
60
60
C0
C0
C0
C0
C0
C0
C0
ENDCHAR

STARTCHAR char41
ENCODING 41
SWIDTH 34 0
DWIDTH 4 0
BBX 4 9 -1 -2
BITMAP
30
30
30
30
30
30
60
60
C0
ENDCHAR

STARTCHAR char42
ENCODING 42
SWIDTH 43 0
DWIDTH 5 0
BBX 4 4 1 3
BITMAP
A0
F0
60
60
ENDCHAR

STARTCHAR char43
ENCODING 43
SWIDTH 60 0
DWIDTH 7 0
BBX 6 6 1 0
BITMAP
30
30
FC
30
30
30
ENDCHAR

STARTCHAR char44
ENCODING 44
SWIDTH 25 0
DWIDTH 3 0
BBX 3 4 -1 -2
BITMAP
20
60
60
40
ENDCHAR

STARTCHAR char45
ENCODING 45
SWIDTH 34 0
DWIDTH 4 0
BBX 4 2 0 1
BITMAP
F0
C0
ENDCHAR

STARTCHAR char46
ENCODING 46
SWIDTH 25 0
DWIDTH 3 0
BBX 2 2 0 -1
BITMAP
C0
80
ENDCHAR

STARTCHAR char47
ENCODING 47
SWIDTH 51 0
DWIDTH 6 0
BBX 7 7 -1 0
BITMAP
0E
0C
18
18
30
70
60
ENDCHAR

STARTCHAR char48
ENCODING 48
SWIDTH 60 0
DWIDTH 7 0
BBX 7 7 0 0
BITMAP
3C
66
E6
C6
CE
EC
78
ENDCHAR

STARTCHAR char49
ENCODING 49
SWIDTH 60 0
DWIDTH 7 0
BBX 5 7 1 0
BITMAP
18
78
70
B0
30
30
70
ENDCHAR

STARTCHAR char50
ENCODING 50
SWIDTH 60 0
DWIDTH 7 0
BBX 7 8 0 -1
BITMAP
3C
6E
66
1C
78
F4
FC
C0
ENDCHAR

STARTCHAR char51
ENCODING 51
SWIDTH 60 0
DWIDTH 7 0
BBX 7 7 0 0
BITMAP
3C
66
0E
1C
CC
EC
78
ENDCHAR

STARTCHAR char52
ENCODING 52
SWIDTH 60 0
DWIDTH 7 0
BBX 8 7 0 0
BITMAP
0E
1E
3C
6D
FE
9C
18
ENDCHAR

STARTCHAR char53
ENCODING 53
SWIDTH 60 0
DWIDTH 7 0
BBX 7 8 0 0
BITMAP
02
7E
60
78
EC
CC
EC
78
ENDCHAR

STARTCHAR char54
ENCODING 54
SWIDTH 60 0
DWIDTH 7 0
BBX 6 7 1 0
BITMAP
3C
48
F8
DC
CC
DC
70
ENDCHAR

STARTCHAR char55
ENCODING 55
SWIDTH 60 0
DWIDTH 7 0
BBX 6 7 1 0
BITMAP
FC
98
38
30
60
60
E0
ENDCHAR

STARTCHAR char56
ENCODING 56
SWIDTH 60 0
DWIDTH 7 0
BBX 7 7 0 0
BITMAP
3E
66
66
7C
C6
EE
7C
ENDCHAR

STARTCHAR char57
ENCODING 57
SWIDTH 60 0
DWIDTH 7 0
BBX 7 7 0 0
BITMAP
3C
6E
66
7E
3E
0C
F8
ENDCHAR

STARTCHAR char58
ENCODING 58
SWIDTH 25 0
DWIDTH 3 0
BBX 4 6 0 -1
BITMAP
60
40
00
00
60
C0
ENDCHAR

STARTCHAR char59
ENCODING 59
SWIDTH 25 0
DWIDTH 3 0
BBX 4 7 0 -2
BITMAP
60
40
00
20
60
C0
C0
ENDCHAR

STARTCHAR char60
ENCODING 60
SWIDTH 51 0
DWIDTH 6 0
BBX 6 5 0 0
BITMAP
18
60
C0
30
0C
ENDCHAR

STARTCHAR char61
ENCODING 61
SWIDTH 60 0
DWIDTH 7 0
BBX 7 4 0 1
BITMAP
FE
00
00
FE
ENDCHAR

STARTCHAR char62
ENCODING 62
SWIDTH 51 0
DWIDTH 6 0
BBX 6 5 0 0
BITMAP
60
18
0C
30
C0
ENDCHAR

STARTCHAR char63
ENCODING 63
SWIDTH 60 0
DWIDTH 7 0
BBX 6 9 1 -1
BITMAP
10
7C
EC
38
30
00
00
60
40
ENDCHAR

STARTCHAR char64
ENCODING 64
SWIDTH 7 0
DWIDTH 11 0
BBX 9 8 1 0
BITMAP
1C00
2200
7B00
E580
E500
ED00
7E00
3C00
ENDCHAR

STARTCHAR char65
ENCODING 65
SWIDTH 77 0
DWIDTH 9 0
BBX 8 7 -1 0
BITMAP
0E
0E
1A
3B
37
7F
63
ENDCHAR

STARTCHAR char66
ENCODING 66
SWIDTH 68 0
DWIDTH 8 0
BBX 7 8 0 -1
BITMAP
7C
66
66
7C
66
EC
FC
80
ENDCHAR

STARTCHAR char67
ENCODING 67
SWIDTH 68 0
DWIDTH 8 0
BBX 7 7 1 0
BITMAP
3C
6E
C0
C0
CE
DC
78
ENDCHAR

STARTCHAR char68
ENCODING 68
SWIDTH 77 0
DWIDTH 9 0
BBX 8 7 0 0
BITMAP
7E
67
63
63
E6
FC
C0
ENDCHAR

STARTCHAR char69
ENCODING 69
SWIDTH 60 0
DWIDTH 7 0
BBX 8 8 0 -1
BITMAP
7E
60
66
7C
60
E6
FC
E0
ENDCHAR

STARTCHAR char70
ENCODING 70
SWIDTH 60 0
DWIDTH 7 0
BBX 7 7 0 0
BITMAP
7E
60
64
7C
E0
E0
40
ENDCHAR

STARTCHAR char71
ENCODING 71
SWIDTH 77 0
DWIDTH 9 0
BBX 7 8 1 -1
BITMAP
3C
66
C0
CE
CE
FC
74
04
ENDCHAR

STARTCHAR char72
ENCODING 72
SWIDTH 68 0
DWIDTH 8 0
BBX 8 7 0 0
BITMAP
73
73
63
7F
E6
E6
46
ENDCHAR

STARTCHAR char73
ENCODING 73
SWIDTH 25 0
DWIDTH 3 0
BBX 4 7 0 0
BITMAP
70
70
60
60
E0
E0
40
ENDCHAR

STARTCHAR char74
ENCODING 74
SWIDTH 60 0
DWIDTH 7 0
BBX 7 7 0 0
BITMAP
0C
0C
0C
0C
DC
F8
70
ENDCHAR

STARTCHAR char75
ENCODING 75
SWIDTH 68 0
DWIDTH 8 0
BBX 8 7 0 0
BITMAP
77
6F
7C
7C
EC
CE
46
ENDCHAR

STARTCHAR char76
ENCODING 76
SWIDTH 60 0
DWIDTH 7 0
BBX 6 8 0 -1
BITMAP
70
70
60
60
60
E4
FC
C0
ENDCHAR

STARTCHAR char77
ENCODING 77
SWIDTH 86 0
DWIDTH 10 0
BBX 10 7 0 0
BITMAP
7B80
7B80
7F80
7D80
DF80
DF00
5900
ENDCHAR

STARTCHAR char78
ENCODING 78
SWIDTH 68 0
DWIDTH 8 0
BBX 8 7 0 0
BITMAP
72
73
7B
7E
EE
CE
4E
ENDCHAR

STARTCHAR char79
ENCODING 79
SWIDTH 77 0
DWIDTH 9 0
BBX 7 7 1 0
BITMAP
3C
66
C6
C6
CE
EC
78
ENDCHAR

STARTCHAR char80
ENCODING 80
SWIDTH 68 0
DWIDTH 8 0
BBX 7 7 0 0
BITMAP
7C
66
66
7C
E0
C0
40
ENDCHAR

STARTCHAR char81
ENCODING 81
SWIDTH 77 0
DWIDTH 9 0
BBX 7 8 1 -1
BITMAP
3C
6E
C6
C6
DE
DC
7C
04
ENDCHAR

STARTCHAR char82
ENCODING 82
SWIDTH 68 0
DWIDTH 8 0
BBX 7 7 0 0
BITMAP
7E
66
66
7C
EC
E4
4C
ENDCHAR

STARTCHAR char83
ENCODING 83
SWIDTH 60 0
DWIDTH 7 0
BBX 7 7 0 0
BITMAP
3E
66
7C
3E
06
EE
78
ENDCHAR

STARTCHAR char84
ENCODING 84
SWIDTH 60 0
DWIDTH 7 0
BBX 7 7 0 0
BITMAP
7E
58
38
30
30
30
30
ENDCHAR

STARTCHAR char85
ENCODING 85
SWIDTH 68 0
DWIDTH 8 0
BBX 7 7 1 0
BITMAP
44
46
CE
CC
CC
DC
78
ENDCHAR

STARTCHAR char86
ENCODING 86
SWIDTH 60 0
DWIDTH 7 0
BBX 7 7 1 0
BITMAP
CC
CE
DC
F8
F8
70
70
ENDCHAR

STARTCHAR char87
ENCODING 87
SWIDTH 7 0
DWIDTH 11 0
BBX 10 7 1 0
BITMAP
CC80
DDC0
DF80
DF80
FF00
7F00
6E00
ENDCHAR

STARTCHAR char88
ENCODING 88
SWIDTH 77 0
DWIDTH 9 0
BBX 8 7 0 0
BITMAP
73
3F
3E
3C
7C
FE
E6
ENDCHAR

STARTCHAR char89
ENCODING 89
SWIDTH 68 0
DWIDTH 8 0
BBX 8 7 1 0
BITMAP
E6
6E
7C
38
30
70
30
ENDCHAR

STARTCHAR char90
ENCODING 90
SWIDTH 60 0
DWIDTH 7 0
BBX 8 9 0 -1
BITMAP
07
7E
4E
1C
38
70
F6
FC
C0
ENDCHAR

STARTCHAR char91
ENCODING 91
SWIDTH 43 0
DWIDTH 5 0
BBX 5 10 0 -3
BITMAP
38
30
60
60
60
60
60
E8
F0
80
ENDCHAR

STARTCHAR char92
ENCODING 92
SWIDTH 25 0
DWIDTH 3 0
BBX 3 8 0 0
BITMAP
80
80
40
40
40
40
20
20
ENDCHAR

STARTCHAR char93
ENCODING 93
SWIDTH 43 0
DWIDTH 5 0
BBX 6 11 -1 -3
BITMAP
04
38
38
18
18
18
30
30
30
F0
80
ENDCHAR

STARTCHAR char94
ENCODING 94
SWIDTH 0 0
DWIDTH 0 0
BBX 4 1 -1 8
BITMAP
70
ENDCHAR

STARTCHAR char95
ENCODING 95
SWIDTH 51 0
DWIDTH 6 0
BBX 6 1 0 -2
BITMAP
FC
ENDCHAR

STARTCHAR char96
ENCODING 96
SWIDTH 0 0
DWIDTH 0 0
BBX 3 1 -1 6
BITMAP
40
ENDCHAR

STARTCHAR char97
ENCODING 97
SWIDTH 60 0
DWIDTH 7 0
BBX 7 5 0 0
BITMAP
7C
4C
FC
CC
FC
ENDCHAR

STARTCHAR char98
ENCODING 98
SWIDTH 60 0
DWIDTH 7 0
BBX 6 7 0 0
BITMAP
60
60
78
6C
EC
EC
F8
ENDCHAR

STARTCHAR char99
ENCODING 99
SWIDTH 60 0
DWIDTH 7 0
BBX 6 5 0 0
BITMAP
3C
C0
C0
EC
78
ENDCHAR

STARTCHAR char100
ENCODING 100
SWIDTH 60 0
DWIDTH 7 0
BBX 7 7 0 0
BITMAP
06
06
36
EC
CC
DC
6C
ENDCHAR

STARTCHAR char101
ENCODING 101
SWIDTH 60 0
DWIDTH 7 0
BBX 6 5 0 0
BITMAP
3C
EC
FC
C4
78
ENDCHAR

STARTCHAR char102
ENCODING 102
SWIDTH 34 0
DWIDTH 4 0
BBX 5 7 0 0
BITMAP
30
60
F0
60
60
E0
40
ENDCHAR

STARTCHAR char103
ENCODING 103
SWIDTH 60 0
DWIDTH 7 0
BBX 7 7 0 -2
BITMAP
74
CC
CC
FC
6C
18
F8
ENDCHAR

STARTCHAR char104
ENCODING 104
SWIDTH 60 0
DWIDTH 7 0
BBX 6 7 0 0
BITMAP
60
60
7C
6C
EC
CC
4C
ENDCHAR

STARTCHAR char105
ENCODING 105
SWIDTH 25 0
DWIDTH 3 0
BBX 4 7 0 0
BITMAP
70
00
60
60
E0
C0
40
ENDCHAR

STARTCHAR char106
ENCODING 106
SWIDTH 25 0
DWIDTH 3 0
BBX 4 10 -1 -3
BITMAP
30
00
30
30
60
60
60
E0
C0
80
ENDCHAR

STARTCHAR char107
ENCODING 107
SWIDTH 60 0
DWIDTH 7 0
BBX 7 7 0 0
BITMAP
60
60
7C
78
F8
F8
5C
ENDCHAR

STARTCHAR char108
ENCODING 108
SWIDTH 25 0
DWIDTH 3 0
BBX 4 7 0 0
BITMAP
70
60
60
60
E0
C0
40
ENDCHAR

STARTCHAR char109
ENCODING 109
SWIDTH 7 0
DWIDTH 11 0
BBX 10 5 0 0
BITMAP
5FC0
6EC0
CCC0
CD80
4C80
ENDCHAR

STARTCHAR char110
ENCODING 110
SWIDTH 60 0
DWIDTH 7 0
BBX 6 5 0 0
BITMAP
5C
6C
EC
CC
4C
ENDCHAR

STARTCHAR char111
ENCODING 111
SWIDTH 60 0
DWIDTH 7 0
BBX 6 5 0 0
BITMAP
38
EC
CC
CC
78
ENDCHAR

STARTCHAR char112
ENCODING 112
SWIDTH 60 0
DWIDTH 7 0
BBX 7 7 -1 -2
BITMAP
3C
36
76
74
7C
60
60
ENDCHAR

STARTCHAR char113
ENCODING 113
SWIDTH 60 0
DWIDTH 7 0
BBX 7 7 0 -2
BITMAP
36
EE
CC
FC
FC
0C
18
ENDCHAR

STARTCHAR char114
ENCODING 114
SWIDTH 34 0
DWIDTH 4 0
BBX 5 5 0 0
BITMAP
78
70
E0
C0
40
ENDCHAR

STARTCHAR char115
ENCODING 115
SWIDTH 51 0
DWIDTH 6 0
BBX 6 5 0 0
BITMAP
7C
70
7C
CC
78
ENDCHAR

STARTCHAR char116
ENCODING 116
SWIDTH 34 0
DWIDTH 4 0
BBX 4 7 0 0
BITMAP
30
60
F0
60
60
E0
60
ENDCHAR

STARTCHAR char117
ENCODING 117
SWIDTH 60 0
DWIDTH 7 0
BBX 7 5 0 0
BITMAP
4C
EC
CC
FC
E4
ENDCHAR

STARTCHAR char118
ENCODING 118
SWIDTH 51 0
DWIDTH 6 0
BBX 5 5 1 0
BITMAP
D8
D8
F0
E0
E0
ENDCHAR

STARTCHAR char119
ENCODING 119
SWIDTH 86 0
DWIDTH 10 0
BBX 9 5 0 0
BITMAP
ED80
7F80
7B00
7F00
6E00
ENDCHAR

STARTCHAR char120
ENCODING 120
SWIDTH 51 0
DWIDTH 6 0
BBX 7 5 -1 0
BITMAP
34
3C
38
7C
6C
ENDCHAR

STARTCHAR char121
ENCODING 121
SWIDTH 51 0
DWIDTH 6 0
BBX 6 7 0 -2
BITMAP
C8
7C
78
70
70
E0
E0
ENDCHAR

STARTCHAR char122
ENCODING 122
SWIDTH 51 0
DWIDTH 6 0
BBX 6 5 0 0
BITMAP
7C
38
70
E0
F8
ENDCHAR

STARTCHAR char123
ENCODING 123
SWIDTH 34 0
DWIDTH 4 0
BBX 3 9 0 -2
BITMAP
60
40
60
60
80
40
40
60
60
ENDCHAR

STARTCHAR char124
ENCODING 124
SWIDTH 25 0
DWIDTH 3 0
BBX 2 8 0 0
BITMAP
C0
C0
C0
C0
C0
C0
C0
C0
ENDCHAR

STARTCHAR char125
ENCODING 125
SWIDTH 34 0
DWIDTH 4 0
BBX 3 9 0 -2
BITMAP
C0
40
60
60
20
60
60
60
E0
ENDCHAR

STARTCHAR char126
ENCODING 126
SWIDTH 0 0
DWIDTH 0 0
BBX 4 1 -1 8
BITMAP
70
ENDCHAR

STARTCHAR char128
ENCODING 128
SWIDTH 68 0
DWIDTH 8 0
BBX 8 7 0 0
BITMAP
1E
37
F8
F8
67
6E
3C
ENDCHAR

STARTCHAR char130
ENCODING 130
SWIDTH 25 0
DWIDTH 3 0
BBX 3 4 0 -2
BITMAP
40
C0
C0
80
ENDCHAR

STARTCHAR char131
ENCODING 131
SWIDTH 0 0
DWIDTH 0 0
BBX 4 1 -1 8
BITMAP
70
ENDCHAR

STARTCHAR char132
ENCODING 132
SWIDTH 43 0
DWIDTH 5 0
BBX 6 4 -1 -2
BITMAP
24
68
58
D0
ENDCHAR

STARTCHAR char133
ENCODING 133
SWIDTH 7 0
DWIDTH 11 0
BBX 9 1 1 0
BITMAP
D980
ENDCHAR

STARTCHAR char134
ENCODING 134
SWIDTH 51 0
DWIDTH 6 0
BBX 7 9 0 -2
BITMAP
10
1A
7C
BC
30
30
70
60
20
ENDCHAR

STARTCHAR char136
ENCODING 136
SWIDTH 0 0
DWIDTH 0 0
BBX 4 1 -1 6
BITMAP
70
ENDCHAR

STARTCHAR char138
ENCODING 138
SWIDTH 86 0
DWIDTH 10 0
BBX 0 0 0 0
BITMAP
ENDCHAR

STARTCHAR char139
ENCODING 139
SWIDTH 34 0
DWIDTH 4 0
BBX 2 4 1 1
BITMAP
40
80
80
40
ENDCHAR

STARTCHAR char140
ENCODING 140
SWIDTH 16 0
DWIDTH 12 0
BBX 11 8 1 -1
BITMAP
3FC0
6FC0
C640
C780
C600
CF80
7F80
0800
ENDCHAR

STARTCHAR char141
ENCODING 141
SWIDTH 86 0
DWIDTH 10 0
BBX 0 0 0 0
BITMAP
ENDCHAR

STARTCHAR char145
ENCODING 145
SWIDTH 25 0
DWIDTH 3 0
BBX 3 4 1 3
BITMAP
60
A0
C0
80
ENDCHAR

STARTCHAR char146
ENCODING 146
SWIDTH 25 0
DWIDTH 3 0
BBX 3 4 1 4
BITMAP
20
C0
C0
C0
ENDCHAR

STARTCHAR char147
ENCODING 147
SWIDTH 43 0
DWIDTH 5 0
BBX 5 4 1 3
BITMAP
58
D8
F0
A0
ENDCHAR

STARTCHAR char148
ENCODING 148
SWIDTH 43 0
DWIDTH 5 0
BBX 5 5 1 3
BITMAP
48
D8
D0
50
B0
ENDCHAR

STARTCHAR char149
ENCODING 149
SWIDTH 34 0
DWIDTH 4 0
BBX 2 3 1 2
BITMAP
C0
C0
C0
ENDCHAR

STARTCHAR char150
ENCODING 150
SWIDTH 60 0
DWIDTH 7 0
BBX 7 2 0 1
BITMAP
FE
C0
ENDCHAR

STARTCHAR char151
ENCODING 151
SWIDTH 60 0
DWIDTH 7 0
BBX 7 1 0 3
BITMAP
FE
ENDCHAR

STARTCHAR char152
ENCODING 152
SWIDTH 0 0
DWIDTH 0 0
BBX 4 1 -1 6
BITMAP
E0
ENDCHAR

STARTCHAR char153
ENCODING 153
SWIDTH 77 0
DWIDTH 9 0
BBX 10 4 0 3
BITMAP
F980
4980
4E80
7D40
ENDCHAR

STARTCHAR char155
ENCODING 155
SWIDTH 34 0
DWIDTH 4 0
BBX 2 4 1 1
BITMAP
80
80
C0
80
ENDCHAR

STARTCHAR char156
ENCODING 156
SWIDTH 7 0
DWIDTH 11 0
BBX 10 5 0 0
BITMAP
7F80
ECC0
CFC0
CC40
7F80
ENDCHAR

STARTCHAR char157
ENCODING 157
SWIDTH 86 0
DWIDTH 10 0
BBX 0 0 0 0
BITMAP
ENDCHAR

STARTCHAR char159
ENCODING 159
SWIDTH 68 0
DWIDTH 8 0
BBX 8 9 1 0
BITMAP
3C
00
EE
6C
7C
38
30
70
30
ENDCHAR

STARTCHAR char160
ENCODING 160
SWIDTH 25 0
DWIDTH 3 0
BBX 0 0 0 0
BITMAP
ENDCHAR

STARTCHAR char161
ENCODING 161
SWIDTH 25 0
DWIDTH 3 0
BBX 4 7 0 0
BITMAP
60
40
60
40
C0
C0
40
ENDCHAR

STARTCHAR char162
ENCODING 162
SWIDTH 60 0
DWIDTH 7 0
BBX 6 7 0 -1
BITMAP
10
7C
EC
C0
EC
78
20
ENDCHAR

STARTCHAR char163
ENCODING 163
SWIDTH 60 0
DWIDTH 7 0
BBX 7 7 0 0
BITMAP
3E
76
60
78
60
74
5C
ENDCHAR

STARTCHAR char164
ENCODING 164
SWIDTH 0 0
DWIDTH 0 0
BBX 4 1 0 8
BITMAP
60
ENDCHAR

STARTCHAR char165
ENCODING 165
SWIDTH 0 0
DWIDTH 0 0
BBX 5 1 -1 8
BITMAP
70
ENDCHAR

STARTCHAR char166
ENCODING 166
SWIDTH 86 0
DWIDTH 10 0
BBX 0 0 0 0
BITMAP
ENDCHAR

STARTCHAR char167
ENCODING 167
SWIDTH 60 0
DWIDTH 7 0
BBX 7 9 0 -2
BITMAP
1E
36
3C
7E
F6
7C
1C
EC
78
ENDCHAR

STARTCHAR char168
ENCODING 168
SWIDTH 0 0
DWIDTH 0 0
BBX 4 1 -1 6
BITMAP
F0
ENDCHAR

STARTCHAR char169
ENCODING 169
SWIDTH 68 0
DWIDTH 8 0
BBX 8 7 0 0
BITMAP
38
46
FE
E3
E3
7A
3C
ENDCHAR

STARTCHAR char170
ENCODING 170
SWIDTH 0 0
DWIDTH 0 0
BBX 5 1 -1 8
BITMAP
D8
ENDCHAR

STARTCHAR char171
ENCODING 171
SWIDTH 34 0
DWIDTH 4 0
BBX 4 4 0 1
BITMAP
50
F0
F0
50
ENDCHAR

STARTCHAR char172
ENCODING 172
SWIDTH 68 0
DWIDTH 8 0
BBX 7 3 0 0
BITMAP
FE
06
06
ENDCHAR

STARTCHAR char174
ENCODING 174
SWIDTH 68 0
DWIDTH 8 0
BBX 8 7 0 0
BITMAP
38
46
FE
F3
FB
7E
3C
ENDCHAR

STARTCHAR char176
ENCODING 176
SWIDTH 25 0
DWIDTH 3 0
BBX 5 3 0 4
BITMAP
60
D8
70
ENDCHAR

STARTCHAR char177
ENCODING 177
SWIDTH 51 0
DWIDTH 6 0
BBX 5 7 0 0
BITMAP
30
30
30
F8
30
30
F8
ENDCHAR

STARTCHAR char179
ENCODING 179
SWIDTH 86 0
DWIDTH 10 0
BBX 0 0 0 0
BITMAP
ENDCHAR

STARTCHAR char180
ENCODING 180
SWIDTH 0 0
DWIDTH 0 0
BBX 3 1 0 6
BITMAP
C0
ENDCHAR

STARTCHAR char182
ENCODING 182
SWIDTH 60 0
DWIDTH 7 0
BBX 5 10 1 -2
BITMAP
78
D8
D8
D8
58
58
58
58
58
58
ENDCHAR

STARTCHAR char183
ENCODING 183
SWIDTH 17 0
DWIDTH 2 0
BBX 2 1 0 3
BITMAP
C0
ENDCHAR

STARTCHAR char184
ENCODING 184
SWIDTH 0 0
DWIDTH 0 0
BBX 3 2 -2 -2
BITMAP
60
C0
ENDCHAR

STARTCHAR char186
ENCODING 186
SWIDTH 0 0
DWIDTH 0 0
BBX 4 1 -1 8
BITMAP
70
ENDCHAR

STARTCHAR char187
ENCODING 187
SWIDTH 34 0
DWIDTH 4 0
BBX 4 4 0 1
BITMAP
50
F0
D0
A0
ENDCHAR

STARTCHAR char189
ENCODING 189
SWIDTH 86 0
DWIDTH 10 0
BBX 0 0 0 0
BITMAP
ENDCHAR

STARTCHAR char191
ENCODING 191
SWIDTH 60 0
DWIDTH 7 0
BBX 6 7 0 0
BITMAP
18
10
30
70
EC
DC
78
ENDCHAR

STARTCHAR char192
ENCODING 192
SWIDTH 77 0
DWIDTH 9 0
BBX 8 9 -1 0
BITMAP
0E
00
0E
0E
1B
3B
37
7F
63
ENDCHAR

STARTCHAR char193
ENCODING 193
SWIDTH 77 0
DWIDTH 9 0
BBX 8 9 -1 0
BITMAP
06
00
0E
0E
1B
3B
37
7F
63
ENDCHAR

STARTCHAR char194
ENCODING 194
SWIDTH 77 0
DWIDTH 9 0
BBX 8 9 -1 0
BITMAP
07
00
0E
0E
1B
3B
37
7F
63
ENDCHAR

STARTCHAR char195
ENCODING 195
SWIDTH 77 0
DWIDTH 9 0
BBX 8 9 -1 0
BITMAP
0F
00
0E
0E
1B
3B
37
7F
63
ENDCHAR

STARTCHAR char196
ENCODING 196
SWIDTH 77 0
DWIDTH 9 0
BBX 8 9 -1 0
BITMAP
0F
00
0E
0E
1B
3B
37
7F
63
ENDCHAR

STARTCHAR char197
ENCODING 197
SWIDTH 77 0
DWIDTH 9 0
BBX 8 10 -1 0
BITMAP
0F
07
0F
0F
0F
1F
3B
3F
7F
63
ENDCHAR

STARTCHAR char198
ENCODING 198
SWIDTH 7 0
DWIDTH 11 0
BBX 12 7 -1 0
BITMAP
0FF0
1B00
1B20
3BE0
3300
7F60
67C0
ENDCHAR

STARTCHAR char199
ENCODING 199
SWIDTH 68 0
DWIDTH 8 0
BBX 7 9 1 -2
BITMAP
3C
6E
C0
C0
CE
FC
78
20
60
ENDCHAR

STARTCHAR char200
ENCODING 200
SWIDTH 60 0
DWIDTH 7 0
BBX 8 10 0 -1
BITMAP
18
00
7E
60
66
7C
60
E6
FC
E0
ENDCHAR

STARTCHAR char201
ENCODING 201
SWIDTH 60 0
DWIDTH 7 0
BBX 8 10 0 -1
BITMAP
0C
00
7E
60
66
7C
60
E6
FC
E0
ENDCHAR

STARTCHAR char202
ENCODING 202
SWIDTH 60 0
DWIDTH 7 0
BBX 8 10 0 -1
BITMAP
1C
00
7E
60
66
7C
60
E6
FC
E0
ENDCHAR

STARTCHAR char203
ENCODING 203
SWIDTH 60 0
DWIDTH 7 0
BBX 8 10 0 -1
BITMAP
36
00
7E
60
66
7C
60
E6
FC
E0
ENDCHAR

STARTCHAR char204
ENCODING 204
SWIDTH 25 0
DWIDTH 3 0
BBX 4 9 0 0
BITMAP
60
00
70
60
60
60
E0
E0
40
ENDCHAR

STARTCHAR char205
ENCODING 205
SWIDTH 25 0
DWIDTH 3 0
BBX 5 9 0 0
BITMAP
30
00
70
60
60
60
E0
E0
40
ENDCHAR

STARTCHAR char206
ENCODING 206
SWIDTH 25 0
DWIDTH 3 0
BBX 5 9 0 0
BITMAP
70
00
70
60
60
60
E0
E0
40
ENDCHAR

STARTCHAR char207
ENCODING 207
SWIDTH 25 0
DWIDTH 3 0
BBX 5 9 0 0
BITMAP
58
00
70
60
60
60
E0
E0
40
ENDCHAR

STARTCHAR char209
ENCODING 209
SWIDTH 68 0
DWIDTH 8 0
BBX 8 9 0 0
BITMAP
1C
00
73
73
7A
7E
EE
CE
4E
ENDCHAR

STARTCHAR char210
ENCODING 210
SWIDTH 77 0
DWIDTH 9 0
BBX 7 9 1 0
BITMAP
18
00
3C
66
C6
C6
CE
EC
78
ENDCHAR

STARTCHAR char211
ENCODING 211
SWIDTH 77 0
DWIDTH 9 0
BBX 7 9 1 0
BITMAP
08
00
3C
66
C6
C6
CE
EC
78
ENDCHAR

STARTCHAR char212
ENCODING 212
SWIDTH 77 0
DWIDTH 9 0
BBX 7 9 1 0
BITMAP
1C
00
3C
66
C6
C6
CE
EC
78
ENDCHAR

STARTCHAR char213
ENCODING 213
SWIDTH 77 0
DWIDTH 9 0
BBX 7 9 1 0
BITMAP
3C
00
3C
66
C6
C6
CE
EC
78
ENDCHAR

STARTCHAR char214
ENCODING 214
SWIDTH 77 0
DWIDTH 9 0
BBX 7 9 1 0
BITMAP
34
00
3C
66
C6
C6
CE
EC
78
ENDCHAR

STARTCHAR char216
ENCODING 216
SWIDTH 77 0
DWIDTH 9 0
BBX 9 7 0 0
BITMAP
1E80
3700
6700
FB00
7700
6600
7C00
ENDCHAR

STARTCHAR char217
ENCODING 217
SWIDTH 68 0
DWIDTH 8 0
BBX 7 9 1 0
BITMAP
10
00
66
46
CE
CC
CC
DC
78
ENDCHAR

STARTCHAR char218
ENCODING 218
SWIDTH 68 0
DWIDTH 8 0
BBX 7 9 1 0
BITMAP
18
00
66
46
CE
CC
CC
DC
78
ENDCHAR

STARTCHAR char219
ENCODING 219
SWIDTH 68 0
DWIDTH 8 0
BBX 7 9 1 0
BITMAP
1C
00
66
46
CE
CC
CC
DC
78
ENDCHAR

STARTCHAR char220
ENCODING 220
SWIDTH 68 0
DWIDTH 8 0
BBX 8 9 0 0
BITMAP
1E
00
73
63
67
66
E6
EE
7C
ENDCHAR

STARTCHAR char222
ENCODING 222
SWIDTH 86 0
DWIDTH 10 0
BBX 0 0 0 0
BITMAP
ENDCHAR

STARTCHAR char223
ENCODING 223
SWIDTH 60 0
DWIDTH 7 0
BBX 7 7 0 0
BITMAP
3E
66
7C
7E
CE
DE
D8
ENDCHAR

STARTCHAR char224
ENCODING 224
SWIDTH 60 0
DWIDTH 7 0
BBX 6 7 0 0
BITMAP
30
00
7C
1C
FC
DC
E8
ENDCHAR

STARTCHAR char225
ENCODING 225
SWIDTH 60 0
DWIDTH 7 0
BBX 6 7 0 0
BITMAP
18
00
7C
1C
FC
DC
E8
ENDCHAR

STARTCHAR char226
ENCODING 226
SWIDTH 60 0
DWIDTH 7 0
BBX 6 7 0 0
BITMAP
18
00
7C
1C
FC
DC
E8
ENDCHAR

STARTCHAR char227
ENCODING 227
SWIDTH 60 0
DWIDTH 7 0
BBX 6 7 0 0
BITMAP
38
00
7C
1C
FC
DC
E8
ENDCHAR

STARTCHAR char228
ENCODING 228
SWIDTH 60 0
DWIDTH 7 0
BBX 6 7 0 0
BITMAP
3C
00
7C
4C
FC
CC
F8
ENDCHAR

STARTCHAR char229
ENCODING 229
SWIDTH 60 0
DWIDTH 7 0
BBX 6 8 0 0
BITMAP
30
38
00
7C
1C
FC
CC
F8
ENDCHAR

STARTCHAR char230
ENCODING 230
SWIDTH 7 0
DWIDTH 11 0
BBX 10 5 0 0
BITMAP
7F80
0CC0
7FC0
DDC0
F780
ENDCHAR

STARTCHAR char231
ENCODING 231
SWIDTH 60 0
DWIDTH 7 0
BBX 6 7 0 -2
BITMAP
3C
EC
C0
FC
78
60
60
ENDCHAR

STARTCHAR char232
ENCODING 232
SWIDTH 60 0
DWIDTH 7 0
BBX 6 7 0 0
BITMAP
30
00
3C
EC
FC
CC
78
ENDCHAR

STARTCHAR char233
ENCODING 233
SWIDTH 60 0
DWIDTH 7 0
BBX 6 7 0 0
BITMAP
18
00
3C
EC
FC
CC
78
ENDCHAR

STARTCHAR char234
ENCODING 234
SWIDTH 60 0
DWIDTH 7 0
BBX 6 7 0 0
BITMAP
3C
00
3C
EC
FC
CC
78
ENDCHAR

STARTCHAR char235
ENCODING 235
SWIDTH 60 0
DWIDTH 7 0
BBX 6 7 0 0
BITMAP
3C
00
3C
EC
FC
CC
78
ENDCHAR

STARTCHAR char236
ENCODING 236
SWIDTH 25 0
DWIDTH 3 0
BBX 3 7 0 0
BITMAP
60
00
60
60
E0
C0
40
ENDCHAR

STARTCHAR char237
ENCODING 237
SWIDTH 25 0
DWIDTH 3 0
BBX 4 7 0 0
BITMAP
20
00
60
60
E0
C0
40
ENDCHAR

STARTCHAR char238
ENCODING 238
SWIDTH 25 0
DWIDTH 3 0
BBX 4 7 0 0
BITMAP
70
00
60
60
E0
C0
40
ENDCHAR

STARTCHAR char239
ENCODING 239
SWIDTH 25 0
DWIDTH 3 0
BBX 5 7 0 0
BITMAP
D0
00
60
60
60
E0
40
ENDCHAR

STARTCHAR char241
ENCODING 241
SWIDTH 60 0
DWIDTH 7 0
BBX 6 7 0 0
BITMAP
38
00
7C
6C
EC
CC
4C
ENDCHAR

STARTCHAR char242
ENCODING 242
SWIDTH 60 0
DWIDTH 7 0
BBX 6 7 0 0
BITMAP
30
00
38
EC
CC
CC
78
ENDCHAR

STARTCHAR char243
ENCODING 243
SWIDTH 60 0
DWIDTH 7 0
BBX 6 7 0 0
BITMAP
18
00
38
EC
CC
CC
78
ENDCHAR

STARTCHAR char244
ENCODING 244
SWIDTH 60 0
DWIDTH 7 0
BBX 6 7 0 0
BITMAP
38
00
38
EC
CC
CC
78
ENDCHAR

STARTCHAR char245
ENCODING 245
SWIDTH 60 0
DWIDTH 7 0
BBX 6 7 0 0
BITMAP
38
00
38
EC
CC
CC
78
ENDCHAR

STARTCHAR char246
ENCODING 246
SWIDTH 60 0
DWIDTH 7 0
BBX 6 7 0 0
BITMAP
3C
00
38
EC
CC
E8
78
ENDCHAR

STARTCHAR char247
ENCODING 247
SWIDTH 51 0
DWIDTH 6 0
BBX 5 4 0 1
BITMAP
30
00
F8
30
ENDCHAR

STARTCHAR char248
ENCODING 248
SWIDTH 60 0
DWIDTH 7 0
BBX 7 5 0 0
BITMAP
3E
6C
FC
CC
F8
ENDCHAR

STARTCHAR char249
ENCODING 249
SWIDTH 60 0
DWIDTH 7 0
BBX 7 7 0 0
BITMAP
30
00
6C
EC
CC
FC
E4
ENDCHAR

STARTCHAR char250
ENCODING 250
SWIDTH 60 0
DWIDTH 7 0
BBX 7 7 0 0
BITMAP
18
00
6C
EC
CC
FC
E4
ENDCHAR

STARTCHAR char251
ENCODING 251
SWIDTH 60 0
DWIDTH 7 0
BBX 7 7 0 0
BITMAP
3C
00
6C
EC
CC
FC
E4
ENDCHAR

STARTCHAR char252
ENCODING 252
SWIDTH 60 0
DWIDTH 7 0
BBX 7 7 0 0
BITMAP
3C
00
6C
6C
CC
FC
64
ENDCHAR

STARTCHAR char255
ENCODING 255
SWIDTH 51 0
DWIDTH 6 0
BBX 6 9 0 -2
BITMAP
6C
00
4C
78
78
70
70
E0
E0
ENDCHAR
ENDFONT
